<?xml version="1.0" encoding="UTF-8"?>
<svg id="Layer_2" xmlns="http://www.w3.org/2000/svg" version="1.1" xmlns:xlink="http://www.w3.org/1999/xlink" viewBox="0 0 633.3 182.7">
  <!-- Generator: Adobe Illustrator 30.1.0, SVG Export Plug-In . SVG Version: 2.1.1 Build 136)  -->
  <defs>
    <style>
      .st0 {
        fill: url(#linear-gradient2);
      }

      .st1 {
        fill: #edf1f2;
      }

      .st2 {
        fill: #fff;
      }

      .st3 {
        fill: #a8fffe;
      }

      .st4 {
        fill: url(#linear-gradient1);
      }

      .st5 {
        fill: url(#linear-gradient8);
      }

      .st6 {
        fill: url(#radial-gradient);
      }

      .st7 {
        isolation: isolate;
      }

      .st8 {
        fill: url(#linear-gradient7);
      }

      .st9 {
        fill: url(#linear-gradient4);
      }

      .st10 {
        fill: url(#linear-gradient5);
      }

      .st11 {
        fill: url(#linear-gradient3);
      }

      .st12 {
        fill: url(#linear-gradient6);
      }

      .st13 {
        fill: #00a99d;
      }

      .st14 {
        fill: url(#linear-gradient);
      }
    </style>
    <linearGradient id="linear-gradient" x1="30.4" y1="-479.9" x2="72.7" y2="-485.4" gradientTransform="translate(0 -400) scale(1 -1)" gradientUnits="userSpaceOnUse">
      <stop offset="0" stop-color="#52dcff"/>
      <stop offset="1" stop-color="#fff"/>
    </linearGradient>
    <linearGradient id="linear-gradient1" x1="114.8" y1="-490.4" x2="128.6" y2="-528.2" gradientTransform="translate(0 -400) scale(1 -1)" gradientUnits="userSpaceOnUse">
      <stop offset="0" stop-color="#6bcfbb"/>
      <stop offset="1" stop-color="#21aeb5"/>
    </linearGradient>
    <radialGradient id="radial-gradient" cx="96.8" cy="-460.5" fx="96.8" fy="-460.5" r="30.3" gradientTransform="translate(.9 -237.8) scale(1 -.7)" gradientUnits="userSpaceOnUse">
      <stop offset="0" stop-color="#fc6dad"/>
      <stop offset="1" stop-color="#f01"/>
    </radialGradient>
    <linearGradient id="linear-gradient2" x1="-4.9" y1="-362.3" x2="126.6" y2="-481.8" gradientTransform="translate(0 -400) scale(1 -1)" gradientUnits="userSpaceOnUse">
      <stop offset="0" stop-color="#2bbcff"/>
      <stop offset=".6" stop-color="#b1e6ff"/>
      <stop offset="1" stop-color="#fff"/>
    </linearGradient>
    <linearGradient id="linear-gradient3" x1="180.7" y1="-535" x2="26.3" y2="-518.9" gradientTransform="translate(0 -400) scale(1 -1)" gradientUnits="userSpaceOnUse">
      <stop offset="0" stop-color="#6ab8a7"/>
      <stop offset="0" stop-color="#7dc3b8"/>
      <stop offset=".2" stop-color="#b5e6eb"/>
      <stop offset=".3" stop-color="#ccf4ff"/>
      <stop offset="1" stop-color="#a8ecff"/>
    </linearGradient>
    <linearGradient id="linear-gradient4" x1="179.8" y1="-543.6" x2="25.4" y2="-527.4" gradientTransform="translate(0 -400) scale(1 -1)" gradientUnits="userSpaceOnUse">
      <stop offset="0" stop-color="#6ab8a7"/>
      <stop offset="0" stop-color="#7dc3b8"/>
      <stop offset=".2" stop-color="#b5e6eb"/>
      <stop offset=".3" stop-color="#ccf4ff"/>
      <stop offset="1" stop-color="#a8ecff"/>
    </linearGradient>
    <linearGradient id="linear-gradient5" x1="61.3" y1="-495" x2="121.6" y2="-623.3" gradientTransform="translate(0 -400) scale(1 -1)" gradientUnits="userSpaceOnUse">
      <stop offset="0" stop-color="#d9f7ff"/>
      <stop offset="1" stop-color="#a8aaff"/>
    </linearGradient>
    <linearGradient id="linear-gradient6" x1="78.7" y1="-429.6" x2="103" y2="-783" gradientTransform="translate(0 -400) scale(1 -1)" gradientUnits="userSpaceOnUse">
      <stop offset="0" stop-color="#fff"/>
      <stop offset="1" stop-color="#a8ecff"/>
    </linearGradient>
    <linearGradient id="linear-gradient7" x1="178.7" y1="-554" x2="24.3" y2="-537.9" gradientTransform="translate(0 -400) scale(1 -1)" gradientUnits="userSpaceOnUse">
      <stop offset="0" stop-color="#6ab8a7"/>
      <stop offset="0" stop-color="#7dc3b8"/>
      <stop offset=".2" stop-color="#b5e6eb"/>
      <stop offset=".3" stop-color="#ccf4ff"/>
      <stop offset="1" stop-color="#a8ecff"/>
    </linearGradient>
    <linearGradient id="linear-gradient8" x1="127.3" y1="-499.8" x2="137.6" y2="-648.4" gradientTransform="translate(0 -400) scale(1 -1)" gradientUnits="userSpaceOnUse">
      <stop offset="0" stop-color="#fff"/>
      <stop offset="1" stop-color="#a8ecff"/>
    </linearGradient>
  </defs>
  <g id="Layer_1-2">
    <g>
      <path class="st3" d="M159.6,63.8v-17c0-9-7.3-16.4-16.4-16.4H53.8c-7.2,0-13.3,4.7-15.5,11.1,10.9-3.5,21.6-5.6,31.9-6.2,33.6-2,62.3,11,89.3,28.4h.1Z"/>
      <path class="st3" d="M70.7,107.8c-3.3-11.4-.6-24.8,8.6-32.6,13.8-11.7,38-7.2,46.9,8.4h.3c-2.8-18.5-15.7-35.2-33-42.5-17.6-7.4-39.1-4.9-54.4,6.5-.5.4-1,.8-1.6,1.2v81c8.5-6,17.1-12.1,25.9-17.6,2.4-1.5,4.9-3,7.3-4.4h0Z"/>
      <path class="st14" d="M70.7,107.8c-3.3-11.4-.6-24.8,8.6-32.6,13.8-11.7,38-7.2,46.9,8.4h.3c-2.8-18.5-15.7-35.2-33-42.5-17.6-7.4-39.1-4.9-54.4,6.5-.5.4-1,.8-1.6,1.2v81c8.5-6,17.1-12.1,25.9-17.6,2.4-1.5,4.9-3,7.3-4.4h0Z"/>
      <path class="st1" d="M126.6,84.4c0-.3,0-.6-.2-.9h-.3c.2.3.3.5.4.8h0Z"/>
      <path class="st4" d="M126.6,84.4c0-.3-.3-.5-.4-.8-19.2,6.1-37.9,14-55.5,24.2,1.8,6.1,5.2,11.5,10.4,15.3,13,9.5,31.3,7.4,46.3,1.7,10.9-4.2,21.3-10,32.2-14.2v-35.7c-11.2,2.3-22.2,5.2-33.1,8.6,0,.3,0,.6.2.9h0Z"/>
      <path class="st3" d="M79.3,75.2c-9.2,7.8-11.9,21.2-8.6,32.6,17.6-10.2,36.3-18.1,55.5-24.2-8.9-15.7-33.1-20.1-46.9-8.4Z"/>
      <path class="st6" d="M79.3,75.2c-9.2,7.8-11.9,21.2-8.6,32.6,17.6-10.2,36.3-18.1,55.5-24.2-8.9-15.7-33.1-20.1-46.9-8.4Z"/>
      <path class="st3" d="M37.5,48.8c.5-.4,1-.8,1.6-1.2,15.4-11.3,36.8-13.9,54.4-6.5,17.3,7.3,30.2,24,33,42.4,10.9-3.4,21.9-6.2,33.1-8.6v-11.2c-27-17.4-55.7-30.4-89.3-28.4-10.3.6-21,2.7-31.9,6.2-.5,1.6-.8,3.4-.8,5.2v2h-.1Z"/>
      <path class="st0" d="M37.5,48.8c.5-.4,1-.8,1.6-1.2,15.4-11.3,36.8-13.9,54.4-6.5,17.3,7.3,30.2,24,33,42.4,10.9-3.4,21.9-6.2,33.1-8.6v-11.2c-27-17.4-55.7-30.4-89.3-28.4-10.3.6-21,2.7-31.9,6.2-.5,1.6-.8,3.4-.8,5.2v2h-.1Z"/>
      <path class="st11" d="M81.1,123.1c-5.2-3.8-8.6-9.3-10.4-15.3-2.5,1.4-4.9,2.9-7.3,4.4-8.8,5.5-17.3,11.6-25.9,17.6v1c8.5-1.5,16.4-4.5,25-5.6,15-1.8,30.3,2.3,43.1,8.5,7.2,3.5,13.7,7.6,20.1,11.8h0c3.5,2.3,7,4.7,10.6,7h7c9,0,16.4-7.3,16.4-16.4v-25.5c-10.9,4.2-21.2,10-32.2,14.2-15.1,5.7-33.3,7.8-46.3-1.7h0Z"/>
      <path class="st9" d="M105.5,133.9c7.1,3.4,13.5,7.5,19.9,11.6h.3c-6.4-4.2-12.9-8.3-20.1-11.8-12.7-6.2-28.1-10.3-43.1-8.5-8.6,1.1-16.6,4-25,5.5h0c8.5-1.4,16.4-4.3,25-5.4,15-1.8,30.3,2.3,43.1,8.5h-.1Z"/>
      <path class="st10" d="M105.5,133.9c7.1,3.4,13.5,7.5,19.9,11.6h.3c-6.4-4.2-12.9-8.3-20.1-11.8-12.7-6.2-28.1-10.3-43.1-8.5-8.6,1.1-16.6,4-25,5.5h0c8.5-1.4,16.4-4.3,25-5.4,15-1.8,30.3,2.3,43.1,8.5h-.1Z"/>
      <path class="st12" d="M125.6,145.7s-.2-.1-.2-.2c-6.3-4.2-12.8-8.2-19.9-11.6-12.7-6.2-28.1-10.3-43.1-8.5-8.6,1.1-16.5,4-25,5.5v5.2c0,3.5,1.1,6.7,3,9.4,3,4.2,7.9,7,13.4,7h82.1c-3.5-2.3-6.9-4.6-10.3-6.8h0Z"/>
      <path class="st8" d="M125.4,145.5s.2.1.2.2c3.4,2.3,6.9,4.6,10.3,6.8h.2c-3.5-2.3-7-4.7-10.6-7h-.2.1Z"/>
      <path class="st5" d="M125.4,145.5s.2.1.2.2c3.4,2.3,6.9,4.6,10.3,6.8h.2c-3.5-2.3-7-4.7-10.6-7h-.2.1Z"/>
    </g>
  </g>
  <path class="st2" d="M473.9,86l-22.6-55.6c-.1-.3-.4-.5-.8-.5h-8.8c-.3,0-.6.2-.8.5l-9.6,23.5c-.5-.2-1-.3-1.6-.3-1.8,0-3.3,1.1-3.9,2.6h-14.8c-.6-1.5-2.1-2.6-3.9-2.6v-22.9c0-.5-.4-.8-.8-.8h-12.4c-.3,0-.6.2-.7.5l-11.7,24.8c-1.4,2.9-2.5,5.4-3.3,7.3s-1.5,3.5-1.9,4.7c-.1.3-.2.6-.3.9-.3.7-1.3.7-1.6,0-.1-.3-.2-.6-.3-.9-.5-1.2-1.1-2.8-1.9-4.7-.9-1.9-2-4.3-3.3-7.3l-11.6-24.8c-.1-.3-.4-.5-.7-.5h-12.9c-.5,0-.8.4-.8.8v22.9h0c-1.8,0-3.3,1.1-3.9,2.6h-8.4c-.6-1.5-2.1-2.6-3.9-2.6s0,0,0,0v-22.9c0-.5-.4-.8-.8-.8h-9.8c-.5,0-.8.4-.8.8v22.9h-.2c-1.8,0-3.3,1.1-3.9,2.6h-8.6c-.6-1.4-2-2.5-3.6-2.6v-22.9c0-.5-.4-.8-.8-.8h-9.8c-.5,0-.8.4-.8.8v21.4c0,.5-.4.8-.8.8h-22c-.5,0-.8-.4-.8-.8v-21.4c0-.5-.4-.8-.8-.8h-9.8c-.5,0-.8.4-.8.8v22.8c-1.5,0-2.9,1-3.5,2.3-5.7-1.5-10.3-7.5-12.6-11,.8-.8,1.2-1.8,1.2-3s-.1-1.1-.3-1.6l.3-.2c.4-.2.5-.8.3-1.2-2-3-4.4-5.4-7.2-7.1-3-1.9-7.2-2.8-11.2-2.8s-7.6.7-10.6,2.1c-3,1.4-5.4,3.4-7.1,6-1.7,2.6-2.5,4.7-2.5,9s1.3,7.8,3.9,10.4c2.6,2.7,6.1,4.5,10.5,5.7,2.4.6,4.5,1.2,6.5,1.9s3.6,1.6,4.8,2.8c1.2,1.1,1.8,2.6,1.8,4.6s-.7,3.5-2.3,4.7-3.8,1.8-6.3,1.8-4.9-.7-7.1-2c-2-1.2-3.8-3.1-5.2-5.7-.2-.4-.8-.5-1.2-.3l-8.4,5.4c-.4.2-.5.7-.3,1.1,2.4,4,5.4,6.9,9,8.7,3.8,1.9,7.9,2.9,12.4,2.9h0c4.4,0,8.1-.7,11.2-2.2,3.1-1.5,5.5-3.5,7.2-6.1s2.5-5.8,2.5-9.1-.6-6-1.9-8.1c-1.2-2.1-2.9-3.8-4.8-5.1-2-1.3-4-2.3-6.1-3s-4-1.4-5.7-1.9c-2.5-.7-4.6-1.6-6.4-2.6s-2.7-2.7-2.7-4.6.7-3.4,2.2-4.6c1.5-1.1,3.6-1.7,5.7-1.7s3.9.5,5.4,1.5c1.3.9,2.6,2.3,3.8,4.2.2.4.7.5,1.1.3l1.1-.7c.8.9,1.9,1.5,3.2,1.5s.4,0,.6,0c2.5,3.9,7.7,10.7,14.5,12.4.3,1.9,1.9,3.4,3.9,3.5v25.2h10.6c.5,0,.8-.4.8-.8v-22.2c0-.5.4-.8.8-.8h22c.5,0,.8.4.8.8v22.2c0,.5.4.8.8.8h9.8c.5,0,.8-.4.8-.8v-24.3c1.9,0,3.4-1.5,3.8-3.2h8.2c.4,1.9,2.1,3.2,4.1,3.2s.1,0,.2,0v25.1h10.6c.5,0,.8-.4.8-.8v-24.3h0c2,0,3.6-1.4,4.1-3.2h8c.4,1.9,2.1,3.2,4.1,3.2s0,0,0,0v25.1h10.4c.5,0,.8-.4.8-.8v-29c0-1.9-.1-3.6-.2-5.1h0c0-1,1.2-1.3,1.6-.5l16.8,34.9c.1.3.4.5.7.5h4.5c.3,0,.6-.2.7-.5l16.8-34.9c.4-.8,1.6-.5,1.6.4h0c-.1,1.6-.2,3.3-.2,5.1v29c0,.5.4.8.8.8h9.6c.5,0,.8-.4.8-.8v-24.3c2,0,3.6-1.4,4.1-3.2h14.4c.3,1.3,1.3,2.4,2.5,2.9l-10.4,25.4h11.8c.3,0,.7-.2.8-.5l3.5-9.8c.1-.3.4-.5.8-.5h22.7c.3,0,.7.2.8.5l3.5,9.8c.1.3.4.5.8.5h10.6c.6,0,1-.6.8-1.1v.3ZM453.1,66.4h-13.9c-.6,0-1-.6-.8-1.1l5.7-14.5c.5-1.2.9-2.4,1.3-3.6.2-.8,1.3-.8,1.6,0,.4,1.2.8,2.4,1.2,3.6l5.7,14.5c.2.5-.2,1.1-.8,1.1h0Z"/>
  <g>
    <g class="st7">
      <path class="st13" d="M213.2,154.5h-5.6v-35.6c-1.3,1.3-3.1,2.6-5.3,3.9s-4.1,2.2-5.9,2.9v-5.4c3.1-1.5,5.9-3.3,8.2-5.3,2.3-2.1,4-4.1,5-6.1h3.6v45.7h0Z"/>
      <path class="st13" d="M235.1,154.5v-6.4h6.4v6.4h-6.4Z"/>
      <path class="st13" d="M254.1,142.6l5.9-.5c.4,2.9,1.4,5,3,6.4s3.5,2.2,5.7,2.2,5-1,6.8-3c1.9-2,2.8-4.7,2.8-8.1s-.9-5.7-2.7-7.6c-1.8-1.8-4.1-2.8-7-2.8s-3.4.4-4.9,1.2-2.6,1.9-3.4,3.2l-5.3-.7,4.4-23.4h22.7v5.3h-18.2l-2.5,12.2c2.7-1.9,5.6-2.9,8.6-2.9s7.3,1.4,10.1,4.1c2.7,2.8,4.1,6.3,4.1,10.6s-1.2,7.7-3.6,10.7c-2.9,3.7-6.9,5.5-12,5.5s-7.5-1.2-10.1-3.5-4.1-5.4-4.5-9.2v.3h.1Z"/>
    </g>
    <g>
      <path class="st13" d="M328.7,130.5c-1.8-.8-5.2-1.8-10.1-2.9s-7.9-2.1-9.1-3.2c-1.2-1-1.8-2.1-1.8-4s.8-3.5,2.5-4.8,4.5-2,8-2,6.1.7,7.9,2.2c1.8,1.4,2.9,3.6,3.2,6.5l5.8-.4c-.1-2.7-.8-5.1-2.2-7.2-1.4-2.1-3.4-3.7-6-4.8-2.5-1.1-5.8-1.6-8.9-1.6s-5.9.6-8.4,1.6c-2.5,1.1-4.4,2.6-5.7,4.6s-2,4.3-2,6.4.5,4,1.6,5.7c1.1,1.6,2.7,3.1,4.9,4.2,1.7.8,4.6,1.8,8.8,2.8s6.9,1.7,8.1,2.2c1.9.7,3.3,1.6,4.1,2.7.8,1,1.2,2.3,1.2,3.7s-.5,2.7-1.3,3.9-2.1,2.1-3.9,2.8-3.5,1-6.1,1-4.9-.5-7-1.4-3.6-2-4.6-3.5-1.6-3.3-1.9-5.6l-5.7.5c0,3.1.9,5.8,2.5,8.2s3.8,4.2,6.6,5.4,7.1,1.8,10.4,1.8,6.2-.6,8.8-1.8c2.6-1.2,4.6-2.9,6-5,1.4-2.2,2.1-4.4,2.1-6.9s-.6-4.7-1.9-6.5-3.2-3.4-5.9-4.6h0Z"/>
      <path class="st13" d="M355.7,108.9l-17.5,45.6h6.4l5-13.8h19l5.3,13.8h6.9l-18.6-45.6h-6.5,0ZM351.3,135.8h0l5-13.3c1.1-2.9,1.9-5.8,2.5-8.7.7,2.4,1.7,5.6,3.2,9.4l4.8,12.6h-15.5Z"/>
      <path class="st13" d="M414.4,140.6c-1.1,3.2-1.9,5.6-2.4,7.3-.5-1.4-1.2-3.7-2.2-6.7l-10.8-32.3h-9.1v45.6h5.9v-38.8l13.2,38.8h5.4l13.2-38.1v38.1h5.8v-45.6h-8.1l-10.9,31.7Z"/>
      <path class="st13" d="M477.3,111.4c-1.5-1-3.4-1.7-5.6-2.1-1.6-.3-3.9-.4-6.9-.4h-17.2v45.4h6v-18.5h11.7c6.5,0,10.9-1.3,13.4-4,2.5-2.6,3.7-5.9,3.7-9.8s-.5-4.3-1.4-6.2c-1-1.9-2.2-3.4-3.7-4.4ZM473.7,128.4c-1.6,1.5-4.4,2.2-8.3,2.2h-11.7v-16.3h11.7c2.7,0,4.6,0,5.6.4,1.6.4,2.8,1.3,3.8,2.7.9,1.4,1.4,2.3,1.4,4.9s-.9,4.6-2.5,6.1Z"/>
      <polygon class="st13" points="500.2 108.9 494.2 108.9 494.2 154.5 522.6 154.5 522.6 149.1 500.2 149.1 500.2 108.9"/>
      <polygon class="st13" points="540.4 133.6 565.6 133.6 565.6 128.3 540.4 128.3 540.4 114.3 567.3 114.3 567.3 108.9 534.4 108.9 534.4 154.5 568.4 154.5 568.4 149.1 540.4 149.1 540.4 133.6"/>
      <path class="st13" d="M613.6,142.1c-1.6-2.5-3.2-4.5-5-6.1-.8-.8-2-1.5-3.6-2.3,4.4-.6,7.6-2,9.7-4.2s3.1-5.7,3.1-8.2-.6-4.8-1.9-6.9c-1.3-2-2.9-3.5-5.1-4.3s-5.2-1.2-9.3-1.2h-20.2v45.6h5.9v-20.2h7c1.6,0,2.7.1,3.4.2,1,.2,1.9.7,2.8,1.2s2,1.6,3.1,3c1.2,1.5,2.6,3.6,4.4,6.3l6,9.5h7.6l-7.9-12.4ZM600.3,129h-12.9v-15.1h14.4c3.4,0,5.9.7,7.4,2.1s2.3,3.1,2.3,5.3-.4,2.8-1.2,4.1c-.8,1.2-1.9,2.1-3.5,2.7s-3.7.9-6.5.9Z"/>
    </g>
  </g>
</svg>